<?xml version="1.0" encoding="utf-8"?>
<!-- Generator: Adobe Illustrator 21.0.0, SVG Export Plug-In . SVG Version: 6.00 Build 0)  -->
<svg version="1.1" id="图层_1" xmlns="http://www.w3.org/2000/svg" xmlns:xlink="http://www.w3.org/1999/xlink" x="0px" y="0px"
	 viewBox="0 0 10.5 10.5" style="enable-background:new 0 0 10.5 10.5;" xml:space="preserve">
<style type="text/css">
	.st0{fill:#FFFFFF;}
</style>
<path class="st0" d="M6.7,5.3l3.5-3.5c0.4-0.4,0.4-1,0-1.4s-1-0.4-1.4,0L5.3,3.9L1.7,0.3c-0.4-0.4-1-0.4-1.4,0s-0.4,1,0,1.4l3.5,3.5
	L0.3,8.8c-0.4,0.4-0.4,1,0,1.4s1,0.4,1.4,0l3.5-3.5l3.5,3.5c0.4,0.4,1,0.4,1.4,0s0.4-1,0-1.4L6.7,5.3z"/>
</svg>
