<?xml version="1.0" encoding="utf-8"?>
<!-- Generator: Adobe Illustrator 20.1.0, SVG Export Plug-In . SVG Version: 6.00 Build 0)  -->
<svg version="1.1" id="Layer_1" xmlns="http://www.w3.org/2000/svg" xmlns:xlink="http://www.w3.org/1999/xlink" x="0px" y="0px"
	 viewBox="0 0 583 54.4" style="enable-background:new 0 0 583 54.4;" xml:space="preserve">
<style type="text/css">
	.st0{fill:none;}
	.st1{fill:#FFFFFF;}
</style>
<g>
	<rect x="0.3" y="0" class="st0" width="582.7" height="54.4"/>
	<g>
		<path class="st1" d="M123.7,8h14.5l8.2,28.4h0.1L154.9,8h14v44.7h-9.3V20.4h-0.1l-9,32.2H142l-8.8-32.2h-0.1v32.2h-9.3L123.7,8
			L123.7,8z"/>
		<path class="st1" d="M83,43.3H66.7l-2.9,9.3h-9.6L70.4,7.9h9.4l16.1,44.7H86L83,43.3z M74.9,18.7L74.9,18.7l-5.7,17.4h11.5
			L74.9,18.7z"/>
		<path class="st1" d="M95.9,7.9h8.9v36.4H122v8.3H95.9V7.9z"/>
		<g>
			<g>
				<polygon class="st1" points="259.3,8 259.3,15.9 269.9,15.9 269.9,52.7 278.8,52.7 278.8,15.9 289.3,15.9 289.3,8 				"/>
			</g>
		</g>
		<path class="st1" d="M403.1,15.9h-10.5V8h30v8H412v36.7h-8.9V15.9z"/>
		<path class="st1" d="M496.1,15.9h-10.5V8h30v8H505v36.7h-8.9V15.9z"/>
		<path class="st1" d="M309.6,43.3h-16.3l-2.9,9.3h-9.6L297,8h9.4l16.1,44.7h-9.8L309.6,43.3z M301.6,18.7h-0.1l-5.6,17.4h11.5
			L301.6,18.7z"/>
		<path class="st1" d="M322.5,8h16.8c13.6,0,21.5,8,21.5,22.4c0,14.3-9.9,22.4-21.3,22.4h-17.1V8H322.5z M338.9,45.1
			c9.2,0,12.6-7.8,12.6-14.8c0-7.5-3.2-14.7-13.3-14.7h-6.8v29.5H338.9z"/>
		<path class="st1" d="M384.2,19.6c0-3.1-3-5-6.5-5c-4.5,0-7.1,2-7.1,4.9c0,3.1,3,4.6,5.2,5.3l8.2,2.6c5.9,1.9,10.2,5.4,10.2,12.2
			c0,5.5-3.9,13.7-16.3,13.7c-15.5,0-16.9-10-16.9-14l8.9-0.2c0,4.8,3.7,6.6,8.1,6.6c3,0,7.3-1.5,7.3-4.9c0-2.4-1-3.6-5.4-5.2
			l-9.7-3.5c-4.9-1.8-8.4-6.1-8.4-11.2c0-5.7,3.9-13.9,15.5-13.9c13.8,0,16,9.2,16,12.4L384.2,19.6z"/>
		<path class="st1" d="M251,19.6c0-3.1-3-5-6.5-5c-4.5,0-7.1,2-7.1,4.9c0,3.1,3,4.6,5.2,5.3l8.2,2.6c5.9,1.9,10.2,5.4,10.2,12.2
			c0,5.5-3.9,13.7-16.3,13.7c-15.5,0-16.9-10-16.9-14l8.9-0.2c0,4.8,3.7,6.6,8.1,6.6c3,0,7.3-1.5,7.3-4.9c0-2.4-1-3.6-5.4-5.2
			l-9.8-3.5c-4.9-1.8-8.4-6.1-8.4-11.2c0-5.7,3.9-13.9,15.5-13.9c13.8,0,16,9.2,16,12.4L251,19.6z"/>
		<path class="st1" d="M424.5,8h27.8v8h-18.9v10.2h18v8h-18v10.6h18.9v8h-27.8V8z"/>
		<path class="st1" d="M517.1,7.9h27.8v8H526v10.2h18.4v8H526v10.6h18.9v8h-27.8V7.9z"/>
		<path class="st1" d="M481.2,43.3h-16.3l-2.9,9.3h-9.6L468.6,8h9.4l16,44.7h-9.8L481.2,43.3z M473.1,18.7H473l-5.6,17.4h11.5
			L473.1,18.7z"/>
		<path class="st1" d="M561.1,35h-5.2v17.7H547V8h16.7c9.4,0,14.7,5.9,14.7,13.3c0,4.7-2.6,10.8-8.3,12.5l10.4,18.8h-10.6L561.1,35z
			 M561.8,27.8c6.1,0,7.7-3.3,7.7-6.1c0-3.2-1.5-6.1-8-6.1h-5.7v12.2H561.8z"/>
		<path class="st1" d="M203.1,10.4V0.9H193v6.4c-0.5,0-1-0.1-1.5-0.1s-1,0-1.5,0.1V0.9h-10.1v9.6c-6.7,4.1-11.1,11.6-11.1,19.8
			c0,12.4,10,23.1,22.7,23.1s22.7-10.7,22.7-23.1C214.2,22,209.8,14.5,203.1,10.4z M191.5,43.7c-7.6,0-13-5.9-13-13.4
			s5.5-13.4,13-13.4c7.6,0,13,5.9,13,13.4C204.6,37.8,199.1,43.7,191.5,43.7z"/>
		<path class="st1" d="M2.6,52.7C5,50.2,7,47.8,8.9,45.2v7.5h9.3V29.1c0.5-1.2,1-2.4,1.5-3.6l0,0l7.4,27.2h8.5l9-32.2h0.1v32.2H54V8
			H40l-8.4,28.4h-0.1L23.4,8c0,0-3.3,25.4-22.2,44.7H2.6z"/>
	</g>
	<rect x="201.7" y="0" class="st0" width="0.8" height="0.8"/>
	<rect x="580.5" y="52.7" class="st0" width="0.9" height="0.9"/>
	<rect x="581.3" y="52.7" class="st0" width="0.9" height="0.9"/>
	<rect x="582.2" y="52.7" class="st0" width="0.9" height="0.9"/>
	<rect x="582.2" y="53.5" class="st0" width="0.9" height="0.9"/>
	<rect x="0.3" y="52.7" class="st0" width="0.9" height="0.9"/>
	<rect x="0.3" y="53.5" class="st0" width="0.9" height="0.9"/>
</g>
</svg>
