<?xml version="1.0" encoding="utf-8"?>
<!-- Generator: Adobe Illustrator 20.1.0, SVG Export Plug-In . SVG Version: 6.00 Build 0)  -->
<svg version="1.1" id="Lager_1" xmlns="http://www.w3.org/2000/svg" xmlns:xlink="http://www.w3.org/1999/xlink" x="0px" y="0px"
	 viewBox="0 0 122 97.3" style="enable-background:new 0 0 122 97.3;" xml:space="preserve">
<style type="text/css">
	.st0{fill:#FFFFFF;}
	.st1{fill:#A39161;}
</style>
<g>
	<g>
		<g>
			<g>
				<path class="st0" d="M120.3,77.2l0,1.8h-18.6l0-1.8c0-35.5-8-48.5-25.1-48.5c-17.2,0-25.1,13-25.1,48.5l0,1.8H32.7l0-1.8
					C32.6,45,52.4,23,76.5,23C100.5,23,120.3,45,120.3,77.2L120.3,77.2z"/>
			</g>
			<g>
				<path class="st1" d="M88.8,77.2l0,1.8H70.2l0-1.8c0-35.5-8-48.5-25.1-48.5c-17.2,0-25.1,13-25.1,48.5l0,1.8H1.2l0-1.8
					C1.2,45,21,23,45.1,23C69.1,23,88.8,45,88.8,77.2L88.8,77.2z"/>
				<path class="st1" d="M29.2,0c-4.3,0-8,3.7-8,8c0,4.5,3.7,8.2,8,8.2c4.5,0,8-3.7,8-8.2C37.2,3.7,33.7,0,29.2,0L29.2,0z"/>
				<path class="st1" d="M60.7,0c-4.5,0-8.2,3.7-8.2,8c0,4.5,3.7,8.2,8.2,8.2c4.5,0,8-3.7,8-8.2C68.7,3.7,65.2,0,60.7,0L60.7,0z"/>
			</g>
		</g>
		<g>
			<g>
				<g>
					<path class="st0" d="M10.7,97.1c-0.1,0-0.3-0.1-1.5-0.1H8.4c-1.2,0-1.3,0.1-1.5,0.1c-0.1,0-0.2-0.1-0.2-0.3
						c0-0.2,0.1-0.3,0.2-0.3c0.2,0,0.3,0,1,0v-7l-2.9,7.6c0,0.1-0.1,0.1-0.3,0.1s-0.2-0.1-0.2-0.1l-2.8-7.7v7.1c0.7,0,0.9,0,1,0
						c0.1,0,0.2,0.1,0.2,0.3c0,0.2-0.1,0.3-0.2,0.3c-0.1,0-0.3-0.1-1.3-0.1c-1,0-1.1,0.1-1.3,0.1C0.1,97.1,0,97,0,96.8
						c0-0.2,0.1-0.3,0.2-0.3c0.1,0,0.3,0,1,0v-8.5c-0.7,0-0.9,0-1,0C0.1,88.1,0,88,0,87.8c0-0.1,0.1-0.3,0.2-0.3
						c0.1,0,0.3,0.1,1.3,0.1h1.3c0.2,0,0.2,0.1,0.4,0.4l2.3,6.4l2.5-6.4C8,87.9,8,87.7,8.2,87.6c0.1,0,1,0,1,0
						c1.2,0,1.4-0.1,1.5-0.1c0.1,0,0.2,0.1,0.2,0.3c0,0.2-0.1,0.3-0.2,0.3c-0.1,0-0.3,0-1,0v8.5c0.7,0,0.9,0,1,0
						c0.1,0,0.2,0.1,0.2,0.3C10.9,97,10.8,97.1,10.7,97.1z"/>
					<path class="st0" d="M18.4,93.5h-2.6l1.3-3.3L18.4,93.5z M15.6,94.1h3l1,2.5c-0.7,0-0.8,0-1,0c-0.1,0-0.2,0.1-0.2,0.3
						c0,0.2,0.1,0.3,0.2,0.3c0.1,0,0.3-0.1,1.5-0.1h1c1.2,0,1.4,0.1,1.5,0.1c0.1,0,0.2-0.1,0.2-0.3c0-0.2-0.1-0.3-0.2-0.3
						c-0.1,0-0.3,0-1,0l-3.5-9.1c0-0.1-0.1-0.2-0.2-0.2c-0.2,0-0.2,0-0.3,0.2L14,96.6h-0.1c-0.7,0-0.7,0-0.9,0
						c-0.1,0-0.2,0.1-0.2,0.3c0,0.2,0.1,0.3,0.2,0.3c0.1,0,0.2-0.1,1.2-0.1h0.1c1,0,1.1,0.1,1.2,0.1c0.1,0,0.2-0.1,0.2-0.3
						c0-0.2-0.1-0.3-0.2-0.3c-0.1,0-0.2,0-0.9,0h-0.1L15.6,94.1z"/>
					<path class="st0" d="M30.3,96.5c1.1,0,1.5-0.7,1.5-1.9c0-0.1,0.1-0.2,0.2-0.2c0.2,0,0.2,0.1,0.2,0.2c0,0.1-0.1,1.2-0.1,1.8v0.5
						c0,0.1-0.1,0.2-0.2,0.2c-0.1,0-0.6-0.1-0.8-0.1L27,97h-0.4c-1.2,0-1.3,0.1-1.5,0.1c-0.1,0-0.2-0.1-0.2-0.3
						c0-0.2,0.1-0.3,0.2-0.3c0.1,0,0.3,0,1,0v-8.5c-0.7,0-0.9,0-1,0c-0.1,0-0.2-0.1-0.2-0.3c0-0.1,0.1-0.3,0.2-0.3
						c0.1,0,0.3,0.1,1.5,0.1h0.9c1.2,0,1.4-0.1,1.5-0.1c0.1,0,0.2,0.1,0.2,0.3c0,0.2-0.1,0.3-0.2,0.3c-0.1,0-0.3,0-1,0v8.4
						L30.3,96.5L30.3,96.5z"/>
					<path class="st0" d="M45.8,97.1c-0.1,0-0.3-0.1-1.5-0.1h-0.8c-1.2,0-1.3,0.1-1.5,0.1c-0.1,0-0.2-0.1-0.2-0.3
						c0-0.2,0.1-0.3,0.2-0.3c0.1,0,0.3,0,1,0v-7l-2.9,7.6c0,0.1-0.1,0.1-0.3,0.1c-0.2,0-0.2-0.1-0.2-0.1l-2.8-7.7v7.1
						c0.7,0,0.8,0,1,0c0.1,0,0.2,0.1,0.2,0.3c0,0.2-0.1,0.3-0.2,0.3c-0.1,0-0.3-0.1-1.3-0.1c-1,0-1.1,0.1-1.3,0.1
						c-0.1,0-0.2-0.1-0.2-0.3c0-0.2,0.1-0.3,0.2-0.3c0.1,0,0.3,0,1,0v-8.5c-0.7,0-0.9,0-1,0c-0.1,0-0.2-0.1-0.2-0.3
						c0-0.1,0.1-0.3,0.2-0.3c0.1,0,0.3,0.1,1.3,0.1h1.3c0.2,0,0.2,0.1,0.4,0.4l2.3,6.4l2.5-6.4c0.1-0.2,0.1-0.4,0.3-0.4
						c0.1,0,1,0,1,0c1.2,0,1.3-0.1,1.5-0.1c0.1,0,0.2,0.1,0.2,0.3c0,0.2-0.1,0.3-0.2,0.3c-0.1,0-0.3,0-1,0v8.5c0.7,0,0.9,0,1,0
						c0.1,0,0.2,0.1,0.2,0.3C46,97,45.9,97.1,45.8,97.1z"/>
					<path class="st0" d="M56.1,92.3c0,3.3-0.8,4.4-2.3,4.4c-1.5,0-2.3-1.1-2.3-4.4c0-3.3,0.8-4.4,2.3-4.4
						C55.4,88,56.1,89,56.1,92.3z M52.5,85.3c-0.4,0-0.7,0.3-0.7,0.7c0,0.4,0.3,0.8,0.7,0.8c0.4,0,0.7-0.3,0.7-0.8
						C53.3,85.6,52.9,85.3,52.5,85.3z M55.1,85.3c-0.4,0-0.7,0.3-0.7,0.7c0,0.4,0.3,0.8,0.7,0.8c0.4,0,0.7-0.3,0.7-0.8
						C55.9,85.6,55.5,85.3,55.1,85.3z M58.2,92.3c0-3-2-4.9-4.4-4.9c-2.4,0-4.4,2-4.4,4.9c0,3,2,5,4.4,5
						C56.2,97.3,58.2,95.3,58.2,92.3z"/>
				</g>
				<g>
					<path class="st0" d="M73.9,92.3c0,3.3-0.8,4.4-2.3,4.4c-1.5,0-2.3-1.1-2.3-4.4c0-3.3,0.8-4.4,2.3-4.4
						C73.1,88,73.9,89,73.9,92.3z M76,92.3c0-3-2-4.9-4.4-4.9c-2.4,0-4.4,2-4.4,4.9c0,3,2,5,4.4,5C74,97.3,76,95.3,76,92.3z"/>
					<path class="st0" d="M83.1,88.2c0,0,0.6,0,0.8,0c1.1,0,1.5,0.6,1.5,2.2c0,1.7-0.4,2.2-1.5,2.2c-0.2,0-0.8,0-0.8,0V88.2z
						 M83.1,93.1c0.4,0,0.8,0,1,0c2.1,0,3.3-1.1,3.3-2.8c0-1.7-1.1-2.7-3.3-2.7c-0.7,0-0.9,0-1.7,0h-0.7c-1.2,0-1.4-0.1-1.5-0.1
						c-0.1,0-0.2,0.1-0.2,0.3c0,0.2,0.1,0.3,0.2,0.3c0.2,0,0.3,0,1,0v8.5c-0.7,0-0.9,0-1,0c-0.1,0-0.2,0.1-0.2,0.3
						c0,0.2,0.1,0.3,0.2,0.3c0.2,0,0.3-0.1,1.5-0.1h0.9c1.2,0,1.4,0.1,1.5,0.1c0.1,0,0.2-0.1,0.2-0.3c0-0.2-0.1-0.3-0.2-0.3
						c-0.1,0-0.3,0-1,0L83.1,93.1L83.1,93.1z"/>
					<path class="st0" d="M98.1,96.4v0.5c0,0.1-0.1,0.2-0.2,0.2c-0.1,0-0.6-0.1-0.8-0.1l-4.3,0h-0.4c-1.2,0-1.3,0.1-1.5,0.1
						c-0.1,0-0.2-0.1-0.2-0.3c0-0.2,0.1-0.3,0.2-0.3c0.1,0,0.3,0,1,0v-8.5c-0.7,0-0.9,0-1,0c-0.1,0-0.2-0.1-0.2-0.3
						c0-0.1,0.1-0.3,0.2-0.3c0.1,0,0.3,0.1,1.5,0.1h0.4l3.9,0c0.2,0,0.7-0.1,0.8-0.1c0.1,0,0.2,0.1,0.2,0.3v0.4
						c0,0.6,0.1,1.6,0.1,1.8c0,0.1-0.1,0.2-0.2,0.2c-0.2,0-0.2-0.1-0.2-0.2c0-1.2-0.4-1.9-1.5-1.9h-2v3.7h1c0.7,0,1.2-0.4,1.2-1.1
						c0-0.1,0.1-0.2,0.2-0.2s0.2,0.1,0.2,0.2c0,0.1,0,0.4,0,1.4c0,1,0,1.3,0,1.4c0,0.1-0.1,0.2-0.2,0.2c-0.1,0-0.2-0.1-0.2-0.2
						c0-0.8-0.4-1.1-1.2-1.1h-1v4.1h2.4c1.1,0,1.5-0.7,1.5-1.9c0-0.1,0.1-0.2,0.2-0.2c0.1,0,0.2,0.1,0.2,0.2
						C98.1,94.8,98.1,95.8,98.1,96.4z"/>
					<path class="st0" d="M105.2,91.9h-0.4v-3.7c0,0,0.4,0,0.5,0c1.1,0,1.5,0.5,1.5,1.7C106.8,91.4,106.2,91.9,105.2,91.9z
						 M109,94.5c0-1-0.7-2.2-2-2.5c0.9-0.3,1.8-1.1,1.8-2.1c0-1.3-1-2.3-3.2-2.3c-0.5,0-1,0-1.5,0h-0.7c-1.2,0-1.4-0.1-1.5-0.1
						c-0.1,0-0.2,0.1-0.2,0.3c0,0.2,0.1,0.3,0.2,0.3c0.1,0,0.3,0,1,0v8.5c-0.7,0-0.9,0-1,0c-0.1,0-0.2,0.1-0.2,0.3
						c0,0.2,0.1,0.3,0.2,0.3c0.1,0,0.3-0.1,1.5-0.1h0.9c1.2,0,1.4,0.1,1.5,0.1c0.1,0,0.2-0.1,0.2-0.3c0-0.2-0.1-0.3-0.2-0.3
						c-0.1,0-0.3,0-1,0v-4.2h0.5c1.4,0,1.8,0.8,1.8,2.1c0,1.9,0.8,2.7,1.9,2.7c0.7,0,1.3-0.4,1.3-0.9c0-0.1-0.1-0.2-0.3-0.2
						c-0.1,0-0.2,0.1-0.2,0.3c0,0.3-0.2,0.4-0.5,0.4c-0.3,0-0.4-0.2-0.4-0.6C108.9,95.8,109,95.3,109,94.5z"/>
					<path class="st0" d="M117.6,93.5H115l1.3-3.3L117.6,93.5z M114.8,94.1h3l1,2.5c-0.7,0-0.8,0-1,0c-0.1,0-0.2,0.1-0.2,0.3
						c0,0.2,0.1,0.3,0.2,0.3c0.1,0,0.3-0.1,1.5-0.1h1c1.2,0,1.4,0.1,1.5,0.1c0.1,0,0.2-0.1,0.2-0.3c0-0.2-0.1-0.3-0.2-0.3
						c-0.1,0-0.3,0-1,0l-3.5-9.1c0-0.1-0.1-0.2-0.3-0.2c-0.2,0-0.2,0-0.3,0.2l-3.6,9.1h-0.1c-0.7,0-0.7,0-0.9,0
						c-0.1,0-0.2,0.1-0.2,0.3c0,0.2,0.1,0.3,0.2,0.3c0.2,0,0.2-0.1,1.2-0.1h0.1c1,0,1.1,0.1,1.2,0.1c0.1,0,0.2-0.1,0.2-0.3
						c0-0.2-0.1-0.3-0.2-0.3c-0.1,0-0.2,0-0.9,0h-0.1L114.8,94.1z"/>
				</g>
			</g>
		</g>
	</g>
</g>
</svg>
