<?xml version="1.0" encoding="utf-8"?>
<!-- Generator: Adobe Illustrator 20.1.0, SVG Export Plug-In . SVG Version: 6.00 Build 0)  -->
<svg version="1.1" id="Lager_1" xmlns="http://www.w3.org/2000/svg" xmlns:xlink="http://www.w3.org/1999/xlink" x="0px" y="0px"
	 viewBox="0 0 220 53" style="enable-background:new 0 0 220 53;" xml:space="preserve">
<style type="text/css">
	.st0{fill:#FFFFFF;}
</style>
<path class="st0" d="M220,53H0V0h220V53z M3,50h214V3H3V50z"/>
<path class="st0" d="M18.1,37.1c-2.5,0-4.1-1.7-4.1-4.2v-2.5h2.2v2.4c0,1.4,0.7,2.4,1.8,2.4c1.3,0,1.9-0.8,1.9-2.2
	c0-2.1-0.8-3.8-2.4-6c-1.5-1.9-3.3-4.8-3.3-7.3c0-2.7,1.3-4.7,4-4.7c2.3,0,3.8,1.7,3.8,4.3v2.6h-2.2v-2.4c0-1.5-0.5-2.4-1.7-2.4
	c-1.1,0-1.7,0.7-1.7,2c0,2.3,0.8,3.8,2.7,6.3c1.9,2.4,3,4.7,3,7.1C22.2,35.8,20.1,37.1,18.1,37.1"/>
<path class="st0" d="M32.3,36.8l-2.4-9.6l-1.2,3.6v5.9h-2.3V15.2h2.3v11.3l3.6-11.3h2.3l-3.2,9.3l3.3,12.3H32.3z"/>
<path class="st0" d="M40.3,13.6c0-1.1,0.7-2,1.8-2c1,0,1.8,0.9,1.8,2c0,0.7-0.4,1.3-0.9,1.6h0.3l3.1,21.5H44L43.4,32h-2.9l-0.7,4.7
	h-2.2l3.2-21.5h0.3C40.6,14.9,40.3,14.3,40.3,13.6 M42,20.4L40.8,30h2.4L42,20.4z M42.1,12.4c-0.5,0-0.9,0.4-0.9,1.2
	c0,0.7,0.4,1.1,0.9,1.1s0.9-0.4,0.9-1.1C42.9,12.9,42.6,12.4,42.1,12.4"/>
<path class="st0" d="M57,36.8l-3.6-10.9l-1-3.5v14.4h-2.2V15.2h2.1l3.3,11.1l1,3.5V15.2h2.2v21.5L57,36.8L57,36.8z"/>
<path class="st0" d="M63.4,36.8V15.2h6.8v2.2h-4.5v7.2h3.2v2.1h-3.2v7.9h4.5v2.2H63.4z"/>
<path class="st0" d="M77.9,37.1c-2.5,0-4.1-1.7-4.1-4.2v-2.5H76v2.4c0,1.4,0.7,2.4,1.8,2.4c1.3,0,1.9-0.8,1.9-2.2
	c0-2.1-0.8-3.8-2.4-6c-1.5-1.9-3.3-4.8-3.3-7.3c0-2.7,1.3-4.7,4-4.7c2.3,0,3.8,1.7,3.8,4.3v2.6h-2.2v-2.4c0-1.5-0.5-2.4-1.7-2.4
	c-1.1,0-1.7,0.7-1.7,2c0,2.3,0.8,3.8,2.7,6.3c1.9,2.4,3,4.7,3,7.1C81.9,35.8,79.8,37.1,77.9,37.1"/>
<path class="st0" d="M96.4,36.8h-4.2V15.2h4.2c2.7,0,3.9,1.7,3.9,4.8v12C100.3,35,99.2,36.8,96.4,36.8 M98,19.8
	c0-1.6-0.5-2.3-1.7-2.3h-1.8v17h1.8c1.2,0,1.7-0.7,1.7-2.3V19.8z"/>
<path class="st0" d="M110.3,36.8l-0.6-4.7h-2.9l-0.7,4.7h-2.2l3.2-21.5h2.4l3.1,21.5H110.3z M108.3,20.4l-1.2,9.6h2.4L108.3,20.4z"
	/>
<path class="st0" d="M123.3,36.8l-3.6-10.9l-1-3.5v14.4h-2.2V15.2h2.1l3.3,11.1l1,3.5V15.2h2.2v21.5L123.3,36.8L123.3,36.8z"/>
<path class="st0" d="M133.3,37.1c-2.5,0-4.1-1.7-4.1-4.2v-2.5h2.2v2.4c0,1.4,0.7,2.4,1.8,2.4c1.3,0,1.9-0.8,1.9-2.2
	c0-2.1-0.8-3.8-2.4-6c-1.5-1.9-3.3-4.8-3.3-7.3c0-2.7,1.3-4.7,4-4.7c2.3,0,3.8,1.7,3.8,4.3v2.6H135v-2.4c0-1.5-0.5-2.4-1.7-2.4
	c-1.1,0-1.7,0.7-1.7,2c0,2.3,0.8,3.8,2.7,6.3c1.9,2.4,3,4.7,3,7.1C137.3,35.8,135.2,37.1,133.3,37.1"/>
<path class="st0" d="M145.9,17.4v19.3h-2.3V17.4h-2.8v-2.2h7.9v2.2H145.9z"/>
<path class="st0" d="M152.6,36.8V15.2h6.8v2.2h-4.5v7.2h3.2v2.1h-3.2v7.9h4.5v2.2H152.6z"/>
<path class="st0" d="M169,36.8l-0.6-4.7h-2.9l-0.7,4.7h-2.2l3.2-21.5h2.4l3.1,21.5H169z M167.1,20.4l-1.2,9.6h2.4L167.1,20.4z"/>
<path class="st0" d="M178.8,17.4v19.3h-2.3V17.4h-2.8v-2.2h7.9v2.2H178.8z"/>
<path class="st0" d="M185.5,36.8V15.2h6.8v2.2h-4.5v7.2h3.2v2.1h-3.2v7.9h4.5v2.2H185.5z"/>
<path class="st0" d="M204.3,37c-1.5,0-2.1-0.5-2.1-2.3v-5.6c0-1.1-0.5-1.8-1.5-1.8h-1.8v9.5h-2.3V15.2h4.2c2,0,3.5,1,3.5,3.9v4.1
	c0,1.6-0.4,2.7-1.8,3.1c1.3,0.4,1.9,1.6,1.9,3v5.2c0,0.6,0.1,0.8,0.6,0.8v1.6h-0.7V37z M202,19c0-1-0.4-1.5-1.3-1.5h-1.9v7.8h1.7
	c0.9,0,1.5-0.6,1.5-1.8V19z"/>
</svg>
