<?xml version="1.0" encoding="utf-8"?>
<!-- Generator: Adobe Illustrator 20.1.0, SVG Export Plug-In . SVG Version: 6.00 Build 0)  -->
<svg version="1.1" id="Layer_1" xmlns="http://www.w3.org/2000/svg" xmlns:xlink="http://www.w3.org/1999/xlink" x="0px" y="0px"
	 viewBox="0 0 860 82.1" style="enable-background:new 0 0 860 82.1;" xml:space="preserve">
<style type="text/css">
	.st0{fill:#FFFFFF;}
</style>
<g>
	<g>
		<path class="st0" d="M157.4,19.7c0.1-0.5,0.3-1,0.6-1.3c0.3-0.4,0.8-0.6,1.4-0.6h14.7c1.1,0,1.7,0.5,2,1.6l11.6,38.7l11.7-38.7
			c0.4-1.1,1.1-1.6,2.2-1.6h14.6c0.5,0,1,0.2,1.4,0.5c0.4,0.4,0.6,0.8,0.7,1.3c1,10,2,19.9,3,29.8c1,9.8,2.1,19.8,3,29.8v0.2
			c0,1.1-0.6,1.7-1.9,1.7h-12.1c-1.3,0-2-0.6-2-1.9l-3.7-32.9l-9.6,33.2c-0.1,0.3-0.3,0.6-0.6,1c-0.4,0.4-0.7,0.6-1,0.6h-11.2
			c-0.3,0-0.7-0.2-1.1-0.6c-0.4-0.4-0.6-0.7-0.6-1L171,46.4l-3.7,32.9c-0.1,1.3-0.8,1.9-2.1,1.9h-12.1c-1.2,0-1.8-0.6-1.8-1.9
			L157.4,19.7z"/>
		<path class="st0" d="M253.8,19.5c0-0.2,0.1-0.4,0.3-0.6c0.2-0.2,0.3-0.4,0.6-0.6s0.5-0.3,0.7-0.4c0.3-0.1,0.5-0.1,0.7-0.1H267
			c0.5,0,0.9,0.1,1.2,0.4c0.3,0.3,0.6,0.6,0.8,0.8l1.1,2.4l22.4,57.7c0.2,0.6,0.2,1-0.1,1.4c-0.3,0.4-0.9,0.5-1.6,0.5h-12.2
			c-0.7,0-1.2-0.1-1.5-0.4c-0.4-0.2-0.6-0.6-0.8-1.2c-0.6-1.4-1.1-2.9-1.7-4.3c-0.5-1.4-1.1-2.9-1.6-4.3h-22.6
			c-0.5,1.4-1.1,2.9-1.6,4.3c-0.6,1.4-1.1,2.9-1.6,4.3c-0.4,1.1-1.1,1.6-2.2,1.6h-12.6c-0.5,0-1-0.1-1.3-0.4
			c-0.4-0.3-0.4-0.7-0.2-1.3L253.8,19.5z M261.6,37.8c-0.5,1.4-1.1,3-1.6,4.7c-0.6,1.7-1.1,3.4-1.6,5.1c-0.5,1.7-1.1,3.4-1.6,5.1
			c-0.6,1.7-1.1,3.2-1.6,4.7h13.1L261.6,37.8z"/>
		<path class="st0" d="M299.5,19.7c0-0.5,0.2-1,0.5-1.3c0.3-0.4,0.8-0.6,1.4-0.6H314c0.5,0,0.9,0.2,1.3,0.5c0.4,0.3,0.6,0.8,0.6,1.4
			v46.4h23.4c0.5,0,1,0.2,1.3,0.5c0.4,0.3,0.6,0.8,0.6,1.4v11.2c0,0.5-0.2,0.9-0.5,1.3c-0.3,0.4-0.8,0.6-1.4,0.6h-38.1
			c-1.3,0-1.9-0.6-1.9-1.9V19.7z"/>
		<path class="st0" d="M354.8,19.7c0.1-0.5,0.3-1,0.6-1.3c0.3-0.4,0.8-0.6,1.4-0.6h14.7c1.1,0,1.7,0.5,2,1.6l11.6,38.7l11.7-38.7
			c0.4-1.1,1.1-1.6,2.2-1.6h14.6c0.5,0,1,0.2,1.4,0.5c0.4,0.4,0.6,0.8,0.7,1.3c1,10,2,19.9,3,29.8c1,9.8,2.1,19.8,3,29.8v0.2
			c0,1.1-0.6,1.7-1.9,1.7h-12.1c-1.3,0-2-0.6-2-1.9l-3.7-32.9l-9.6,33.2c-0.1,0.3-0.3,0.6-0.6,1s-0.7,0.6-1,0.6h-11.2
			c-0.3,0-0.7-0.2-1.1-0.6c-0.4-0.4-0.6-0.7-0.6-1l-9.6-33.1l-3.7,32.9c-0.1,1.3-0.8,1.9-2.1,1.9h-12.1c-1.2,0-1.8-0.6-1.8-1.9
			L354.8,19.7z"/>
		<path class="st0" d="M430.2,49.6c0-3,0.4-5.9,1.2-8.7s1.9-5.4,3.3-7.8c1.4-2.4,3.1-4.6,5.1-6.6c2-2,4.2-3.7,6.6-5.1
			c2.4-1.4,5-2.5,7.8-3.3c2.8-0.8,5.7-1.2,8.7-1.2c3,0,5.9,0.4,8.7,1.2c2.8,0.8,5.4,1.9,7.8,3.3c2.4,1.4,4.6,3.1,6.6,5.1
			c2,2,3.7,4.2,5.1,6.6c1.4,2.4,2.5,5,3.3,7.8c0.8,2.8,1.2,5.7,1.2,8.7c0,3-0.4,5.9-1.2,8.7c-0.8,2.8-1.9,5.4-3.3,7.8
			c-1.4,2.4-3.1,4.6-5.1,6.6c-2,2-4.2,3.7-6.6,5.1c-2.4,1.4-5,2.5-7.8,3.3c-2.8,0.8-5.7,1.2-8.7,1.2c-3,0-5.9-0.4-8.7-1.2
			c-2.8-0.8-5.4-1.9-7.8-3.3c-2.4-1.4-4.6-3.1-6.6-5.1c-2-2-3.7-4.2-5.1-6.6c-1.4-2.4-2.5-5-3.3-7.8S430.2,52.6,430.2,49.6z
			 M446.7,49.5c0,2.4,0.4,4.6,1.2,6.6c0.8,2,1.9,3.8,3.3,5.3c1.4,1.5,3.1,2.7,5.1,3.6c2,0.9,4.1,1.3,6.5,1.3s4.5-0.4,6.5-1.3
			c2-0.9,3.7-2.1,5.1-3.6c1.4-1.5,2.5-3.3,3.3-5.3c0.8-2,1.2-4.2,1.2-6.6c0-2.3-0.4-4.5-1.2-6.6c-0.8-2.1-1.9-3.9-3.3-5.4
			c-1.4-1.5-3.1-2.7-5.1-3.6c-2-0.9-4.1-1.3-6.5-1.3s-4.5,0.4-6.5,1.3c-2,0.9-3.7,2.1-5.1,3.6c-1.4,1.5-2.5,3.3-3.3,5.4
			C447.1,45,446.7,47.2,446.7,49.5z M447.7,1.8c0-1.2,0.6-1.8,1.8-1.8h8.4c0.4,0,0.8,0.2,1.2,0.5c0.4,0.3,0.6,0.8,0.6,1.3v8.1
			c0,0.5-0.2,1-0.5,1.4c-0.3,0.4-0.7,0.7-1.3,0.7h-8.4c-1.2,0-1.8-0.7-1.8-2.1V1.8z M466.3,1.8c0-1.2,0.6-1.8,1.9-1.8h8.2
			c1.2,0,1.8,0.6,1.8,1.8v8.1c0,0.5-0.2,1-0.5,1.4c-0.3,0.4-0.8,0.7-1.3,0.7h-8.2c-1.3,0-1.9-0.7-1.9-2.1V1.8z"/>
		<path class="st0" d="M511.1,60.7c0.5,0.4,1.1,0.9,1.9,1.6c0.8,0.7,1.6,1.3,2.6,2c1.4,1,2.9,1.7,4.3,2.3c1.4,0.5,2.9,0.8,4.5,0.8
			c1.4,0,2.7-0.2,3.6-0.5c1-0.3,1.8-0.8,2.3-1.3c0.6-0.5,1-1.2,1.2-1.9c0.2-0.7,0.4-1.5,0.4-2.3c0-0.9-0.3-1.7-1-2.4
			s-1.5-1.3-2.5-1.9c-1-0.5-2-1-3-1.4c-1.1-0.4-2-0.7-2.7-1c-3.4-1.2-6.4-2.5-9-3.9c-2.6-1.4-4.7-2.9-6.4-4.6s-3-3.5-3.8-5.6
			s-1.3-4.3-1.3-6.8c0-2.6,0.5-5,1.6-7.2c1.1-2.2,2.6-4,4.6-5.5c2-1.5,4.4-2.7,7.1-3.6c2.8-0.8,5.9-1.3,9.3-1.3
			c2.6,0,5.1,0.3,7.4,0.9c2.4,0.6,4.7,1.5,7,2.8c1,0.6,1.9,1.2,2.7,1.8c0.9,0.6,1.6,1.2,2.3,1.8c0.7,0.6,1.2,1.1,1.6,1.6
			c0.4,0.5,0.6,1,0.6,1.3c0,0.4-0.1,0.7-0.3,1c-0.2,0.3-0.5,0.7-0.8,1.1l-6.5,6.9c-0.5,0.5-1,0.7-1.4,0.7c-0.4,0-0.8-0.1-1.1-0.3
			c-0.3-0.2-0.7-0.5-1.1-0.9l-0.4-0.3c-0.6-0.5-1.2-1-1.9-1.5c-0.7-0.5-1.4-1-2.2-1.4c-0.8-0.4-1.6-0.8-2.5-1
			c-0.9-0.3-1.8-0.4-2.7-0.4c-0.9,0-1.8,0.1-2.6,0.2c-0.8,0.2-1.5,0.4-2.2,0.7c-0.6,0.3-1.1,0.8-1.5,1.3c-0.4,0.6-0.6,1.2-0.6,2
			c0,0.8,0.2,1.5,0.6,2.1c0.4,0.6,1,1.1,1.8,1.6c0.8,0.5,1.8,1,3,1.4c1.2,0.4,2.5,0.9,4.1,1.4c3,1,5.8,2,8.3,3.1
			c2.5,1.1,4.7,2.4,6.6,3.9c1.8,1.5,3.3,3.3,4.3,5.3c1,2.1,1.6,4.6,1.6,7.5c0,3.1-0.6,6-1.9,8.5c-1.3,2.5-3,4.7-5.3,6.5
			s-4.9,3.2-7.9,4.2c-3,1-6.3,1.5-9.7,1.5c-3.3,0-6.5-0.6-9.6-1.8c-3.2-1.2-6.1-2.7-8.8-4.7c-1.1-0.8-2.1-1.6-2.9-2.4
			c-0.8-0.8-1.4-1.4-1.9-1.9l-0.1-0.1c0-0.1-0.1-0.1-0.1-0.1c0,0-0.1,0-0.1-0.1c0-0.1-0.1-0.1-0.1-0.1c0,0-0.1,0-0.1-0.1
			c-0.7-0.7-1-1.3-1-1.7c0-0.5,0.3-1,1-1.6l7.4-7c0.6-0.4,1.1-0.6,1.4-0.6c0.3,0,0.5,0.1,0.8,0.3S510.7,60.4,511.1,60.7z"/>
		<path class="st0" d="M607.3,22.5c0.5,0.3,0.8,0.7,1.1,1.1c0.2,0.5,0.2,1-0.1,1.6l-7.2,10.2c-0.3,0.5-0.6,0.8-1,0.8
			c-0.4,0.1-0.8,0-1.3-0.4c-1.4-1.1-2.9-1.9-4.6-2.4c-1.7-0.6-3.5-0.9-5.3-0.9c-2.3,0-4.5,0.4-6.4,1.3c-2,0.9-3.7,2.1-5.1,3.6
			c-1.4,1.5-2.5,3.3-3.3,5.4s-1.2,4.2-1.2,6.6c0,2.3,0.4,4.5,1.2,6.5c0.8,2,1.9,3.8,3.3,5.3c1.4,1.5,3.1,2.7,5.1,3.6
			c2,0.9,4.1,1.3,6.4,1.3c1.9,0,3.7-0.3,5.4-0.9c1.7-0.6,3.3-1.4,4.6-2.5c0.5-0.3,0.9-0.4,1.3-0.4c0.3,0.1,0.7,0.3,1,0.8l7.3,10.5
			c0.3,0.6,0.4,1.2,0.1,1.6c-0.2,0.4-0.6,0.8-1.1,1.1c-2.7,1.8-5.5,3.2-8.6,4.2s-6.3,1.5-9.7,1.5c-3,0-5.9-0.4-8.7-1.2
			c-2.8-0.8-5.4-1.9-7.8-3.3c-2.4-1.4-4.6-3.1-6.6-5.1c-2-2-3.7-4.2-5.1-6.6c-1.4-2.4-2.5-5-3.3-7.8s-1.2-5.7-1.2-8.7
			c0-3,0.4-5.9,1.2-8.7s1.9-5.4,3.3-7.8c1.4-2.4,3.1-4.6,5.1-6.6c2-2,4.2-3.7,6.6-5.1c2.4-1.4,5-2.5,7.8-3.3
			c2.8-0.8,5.7-1.2,8.7-1.2c3.4,0,6.6,0.5,9.7,1.4C601.8,19.3,604.7,20.7,607.3,22.5z"/>
		<path class="st0" d="M619.1,19.8c0-0.6,0.2-1.1,0.5-1.4c0.3-0.4,0.8-0.5,1.4-0.5h42.3c0.6,0,1.1,0.2,1.4,0.6
			c0.3,0.4,0.5,0.9,0.5,1.5v10.5c0,0.5-0.2,0.9-0.5,1.4c-0.3,0.4-0.8,0.7-1.5,0.7h-27.6V43h21.3c0.5,0,1,0.1,1.3,0.4
			s0.5,0.7,0.5,1.3v9.2c0,0.4-0.2,0.8-0.5,1.2c-0.3,0.4-0.8,0.6-1.4,0.6h-21.4v10.9h28.6c1.3,0,1.9,0.7,1.9,2v10.7
			c0,0.3-0.1,0.5-0.3,0.8c-0.1,0.8-0.7,1.2-1.7,1.2H621c-0.6,0-1-0.1-1.4-0.4s-0.5-0.8-0.5-1.4V19.8z"/>
		<path class="st0" d="M676.8,19.7c0-0.5,0.2-1,0.5-1.3c0.3-0.4,0.8-0.6,1.4-0.6h13.9c0.4,0,0.8,0.1,1.2,0.3c0.4,0.2,0.8,0.5,1.1,1
			c3.6,5.8,7.2,11.6,10.7,17.2c3.6,5.7,7.1,11.4,10.8,17.2V19.5c0.1-0.5,0.3-0.9,0.7-1.2c0.3-0.3,0.7-0.4,1.2-0.4h12.1
			c0.6,0,1.1,0.2,1.5,0.5c0.4,0.3,0.6,0.8,0.6,1.4v59.8c0,0.6-0.2,1-0.5,1.3c-0.3,0.3-0.8,0.4-1.4,0.4h-13.6c-0.4,0-0.7-0.1-1-0.4
			c-0.3-0.3-0.6-0.6-0.9-1c-3.8-6.3-7.5-12.4-11.2-18.5c-3.7-6.1-7.4-12.3-11.3-18.5v36.6c0,0.6-0.1,1.1-0.4,1.4
			c-0.3,0.3-0.8,0.5-1.5,0.5h-12.1c-0.7,0-1.1-0.2-1.4-0.5c-0.3-0.4-0.4-0.8-0.4-1.3V19.7z"/>
		<path class="st0" d="M746.5,19.8c0-0.6,0.2-1.1,0.5-1.4c0.3-0.4,0.8-0.5,1.4-0.5h42.3c0.6,0,1.1,0.2,1.4,0.6
			c0.3,0.4,0.5,0.9,0.5,1.5v10.5c0,0.5-0.2,0.9-0.5,1.4c-0.3,0.4-0.8,0.7-1.5,0.7H763V43h21.3c0.5,0,1,0.1,1.3,0.4s0.5,0.7,0.5,1.3
			v9.2c0,0.4-0.2,0.8-0.5,1.2c-0.3,0.4-0.8,0.6-1.4,0.6H763v10.9h28.6c1.3,0,1.9,0.7,1.9,2v10.7c0,0.3-0.1,0.5-0.3,0.8
			c-0.1,0.8-0.7,1.2-1.7,1.2h-43.1c-0.6,0-1-0.1-1.4-0.4s-0.5-0.8-0.5-1.4V19.8z"/>
		<path class="st0" d="M804.2,19.7c0-0.5,0.2-1,0.5-1.3c0.3-0.4,0.8-0.6,1.4-0.6H820c0.4,0,0.8,0.1,1.2,0.3c0.4,0.2,0.8,0.5,1.1,1
			c3.6,5.8,7.2,11.6,10.7,17.2c3.6,5.7,7.1,11.4,10.8,17.2V19.5c0.1-0.5,0.3-0.9,0.7-1.2c0.3-0.3,0.7-0.4,1.2-0.4h12.1
			c0.6,0,1.1,0.2,1.5,0.5c0.4,0.3,0.6,0.8,0.6,1.4v59.8c0,0.6-0.2,1-0.5,1.3c-0.3,0.3-0.8,0.4-1.4,0.4h-13.6c-0.4,0-0.7-0.1-1-0.4
			c-0.3-0.3-0.6-0.6-0.9-1c-3.8-6.3-7.5-12.4-11.2-18.5c-3.7-6.1-7.4-12.3-11.3-18.5v36.6c0,0.6-0.1,1.1-0.4,1.4
			c-0.3,0.3-0.8,0.5-1.5,0.5h-12.1c-0.7,0-1.1-0.2-1.4-0.5c-0.3-0.4-0.4-0.8-0.4-1.3V19.7z"/>
	</g>
</g>
<path class="st0" d="M135.2,82h-12.5c-1,0-1.7-0.8-1.8-1.7C120,52.2,96.8,29.5,68.5,29.5S16.9,52.2,16,80.3c0,1-0.8,1.7-1.8,1.7H1.8
	c-1,0-1.8-0.8-1.8-1.8c0.9-37,31.3-66.7,68.5-66.7S136,43.3,137,80.3C137,81.2,136.2,82,135.2,82z"/>
<path class="st0" d="M101.8,82H89.3c-0.9,0-1.7-0.7-1.7-1.6c-0.8-9.8-9.1-17.6-19.1-17.6s-18.3,7.7-19.1,17.6
	c-0.1,0.9-0.8,1.6-1.7,1.6H35.1c-1,0-1.8-0.9-1.8-1.9c1-18.5,16.4-33.3,35.1-33.3s34.1,14.8,35.1,33.3C103.6,81.2,102.9,82,101.8,82
	z"/>
</svg>
