<?xml version="1.0" encoding="utf-8"?>
<!-- Generator: Adobe Illustrator 20.1.0, SVG Export Plug-In . SVG Version: 6.00 Build 0)  -->
<svg version="1.1" id="图层_1" xmlns="http://www.w3.org/2000/svg" xmlns:xlink="http://www.w3.org/1999/xlink" x="0px" y="0px"
	 viewBox="0 0 12.9 18" style="enable-background:new 0 0 12.9 18;" xml:space="preserve">
<style type="text/css">
	.st0{fill:#696969;}
</style>
<g>
	<g>
		<g>
			<g>
				<path class="st0" d="M6.4,18c-0.5,0-1-0.3-1.3-0.8L0.9,10C-0.9,6.9,0,2.8,3,1c1-0.6,2.2-1,3.4-1c2.3,0,4.5,1.2,5.6,3.3
					c1.1,2,1.2,4.4,0,6.4c0,0,0,0,0,0.1l-4.3,7.5C7.4,17.7,6.9,18,6.4,18z M6.4,1c-1,0-2,0.3-2.9,0.8C1,3.3,0.2,6.8,1.8,9.4L6,16.7
					C6.1,17,6.3,17,6.4,17s0.3,0,0.4-0.3l4.3-7.4c0,0,0,0,0-0.1c1-1.7,1-3.8,0-5.5C10.2,2.1,8.4,1,6.4,1z"/>
			</g>
			<g>
				<path class="st0" d="M6.4,9C5,9,3.9,7.9,3.9,6.5S5,4,6.4,4s2.5,1.1,2.5,2.5S7.8,9,6.4,9z M6.4,5C5.6,5,4.9,5.7,4.9,6.5
					S5.6,8,6.4,8s1.5-0.7,1.5-1.5S7.2,5,6.4,5z"/>
			</g>
		</g>
	</g>
</g>
</svg>
