<?xml version="1.0" encoding="utf-8"?>
<!-- Generator: Adobe Illustrator 20.1.0, SVG Export Plug-In . SVG Version: 6.00 Build 0)  -->
<svg version="1.1" id="图层_1" xmlns="http://www.w3.org/2000/svg" xmlns:xlink="http://www.w3.org/1999/xlink" x="0px" y="0px"
	 viewBox="0 0 16 15" style="enable-background:new 0 0 16 15;" xml:space="preserve">
<style type="text/css">
	.st0{fill:#696969;}
</style>
<g>
	<g>
		<g>
			<g>
				<g>
					<path class="st0" d="M13.5,15h-11C1.1,15,0,13.9,0,12.5v-9C0,2.1,1.1,1,2.5,1h11C14.9,1,16,2.1,16,3.5v9
						C16,13.9,14.9,15,13.5,15z M2.5,2C1.7,2,1,2.7,1,3.5v9C1,13.3,1.7,14,2.5,14h11c0.8,0,1.5-0.7,1.5-1.5v-9C15,2.7,14.3,2,13.5,2
						H2.5z"/>
				</g>
				<g>
					<g>
						<path class="st0" d="M5,3C4.7,3,4.5,2.8,4.5,2.5v-2C4.5,0.2,4.7,0,5,0s0.5,0.2,0.5,0.5v2C5.5,2.8,5.3,3,5,3z"/>
					</g>
					<g>
						<path class="st0" d="M11,3c-0.3,0-0.5-0.2-0.5-0.5v-2C10.5,0.2,10.7,0,11,0s0.5,0.2,0.5,0.5v2C11.5,2.8,11.3,3,11,3z"/>
					</g>
				</g>
				<g>
					<path class="st0" d="M15,6H1C0.7,6,0.5,5.8,0.5,5.5S0.7,5,1,5h14c0.3,0,0.5,0.2,0.5,0.5S15.3,6,15,6z"/>
				</g>
			</g>
			<g>
				<g>
					<path class="st0" d="M3.5,12.5c-0.3,0-0.5-0.1-0.7-0.3c-0.2-0.2-0.3-0.5-0.3-0.7c0-0.3,0.1-0.5,0.3-0.7c0.4-0.4,1-0.4,1.4,0
						c0.2,0.2,0.3,0.5,0.3,0.7S4.4,12,4.2,12.2C4,12.4,3.8,12.5,3.5,12.5z"/>
				</g>
				<g>
					<path class="st0" d="M3.5,9.5C3.2,9.5,3,9.4,2.8,9.2C2.6,9,2.5,8.8,2.5,8.5c0-0.3,0.1-0.5,0.3-0.7c0.4-0.4,1-0.4,1.4,0
						C4.4,8,4.5,8.3,4.5,8.5S4.4,9,4.2,9.2C4,9.4,3.8,9.5,3.5,9.5z"/>
				</g>
				<g>
					<path class="st0" d="M6.5,12.5c-0.3,0-0.5-0.1-0.7-0.3c-0.2-0.2-0.3-0.5-0.3-0.7s0.1-0.5,0.3-0.7c0.4-0.4,1-0.4,1.4,0
						c0.2,0.2,0.3,0.5,0.3,0.7S7.4,12,7.2,12.2C7,12.4,6.8,12.5,6.5,12.5z"/>
				</g>
				<g>
					<path class="st0" d="M6.5,9.5C6.2,9.5,6,9.4,5.8,9.2C5.6,9,5.5,8.7,5.5,8.5S5.6,8,5.8,7.8c0.4-0.4,1-0.4,1.4,0
						C7.4,8,7.5,8.3,7.5,8.5S7.4,9,7.2,9.2C7,9.4,6.8,9.5,6.5,9.5z"/>
				</g>
				<g>
					<path class="st0" d="M9.5,12.5c-0.3,0-0.5-0.1-0.7-0.3c-0.2-0.2-0.3-0.5-0.3-0.7s0.1-0.5,0.3-0.7c0.4-0.4,1-0.4,1.4,0
						c0.2,0.2,0.3,0.4,0.3,0.7c0,0.3-0.1,0.5-0.3,0.7C10,12.4,9.8,12.5,9.5,12.5z"/>
				</g>
				<g>
					<path class="st0" d="M9.5,9.5C9.2,9.5,9,9.4,8.8,9.2C8.6,9,8.5,8.7,8.5,8.5S8.6,8,8.8,7.8c0.4-0.4,1-0.4,1.4,0
						c0.2,0.2,0.3,0.5,0.3,0.7c0,0.3-0.1,0.5-0.3,0.7C10,9.4,9.8,9.5,9.5,9.5z"/>
				</g>
				<g>
					<path class="st0" d="M12.5,12.5c-0.3,0-0.5-0.1-0.7-0.3c-0.2-0.2-0.3-0.5-0.3-0.7c0-0.3,0.1-0.5,0.3-0.7c0.4-0.4,1-0.4,1.4,0
						c0.2,0.2,0.3,0.5,0.3,0.7s-0.1,0.5-0.3,0.7C13,12.4,12.8,12.5,12.5,12.5z"/>
				</g>
				<g>
					<path class="st0" d="M12.5,9.5c-0.3,0-0.5-0.1-0.7-0.3c-0.2-0.2-0.3-0.5-0.3-0.7s0.1-0.5,0.3-0.7c0.4-0.4,1-0.4,1.4,0
						c0.2,0.2,0.3,0.5,0.3,0.7c0,0.3-0.1,0.5-0.3,0.7C13,9.4,12.8,9.5,12.5,9.5z"/>
				</g>
			</g>
		</g>
	</g>
</g>
</svg>
