<?xml version="1.0" encoding="utf-8"?>
<!-- Generator: Adobe Illustrator 20.1.0, SVG Export Plug-In . SVG Version: 6.00 Build 0)  -->
<svg version="1.1" id="图层_1" xmlns="http://www.w3.org/2000/svg" xmlns:xlink="http://www.w3.org/1999/xlink" x="0px" y="0px"
	 viewBox="0 0 16.1 12.1" style="enable-background:new 0 0 16.1 12.1;" xml:space="preserve">
<style type="text/css">
	.st0{fill:#696969;}
</style>
<g>
	<g>
		<g>
			<g>
				<path class="st0" d="M13.3,12.1H2.7C1.2,12.1,0,10.9,0,9.4V2.7C0,1.2,1.2,0,2.7,0h10.7c1.5,0,2.7,1.2,2.7,2.7v6.7
					C16,10.9,14.8,12.1,13.3,12.1z M2.7,1.1C1.8,1.1,1,1.9,1,2.8v6.7c0,0.9,0.8,1.7,1.7,1.7h10.7c0.9,0,1.7-0.8,1.7-1.7V2.8
					c0-0.9-0.8-1.7-1.7-1.7C13.4,1.1,2.7,1.1,2.7,1.1z"/>
			</g>
			<g>
				<path class="st0" d="M15.8,3.5L9.6,7.1C9.2,7.4,8.6,7.5,8,7.5S6.9,7.4,6.4,7.1L0.2,3.5l0.5-0.9l6.2,3.6c0.6,0.3,1.6,0.3,2.1,0
					l6.2-3.6L15.8,3.5z"/>
			</g>
			<g>
				<rect x="-0.5" y="7.8" transform="matrix(0.6323 -0.7747 0.7747 0.6323 -5.3859 5.2914)" class="st0" width="6.8" height="1"/>
			</g>
			<g>
				<rect x="12.7" y="4.9" transform="matrix(0.7746 -0.6324 0.6324 0.7746 -2.3087 10.206)" class="st0" width="1" height="6.8"/>
			</g>
		</g>
	</g>
</g>
</svg>
